<svg width="32" height="32" viewBox="0 0 32 32" fill="none" xmlns="http://www.w3.org/2000/svg">
  <rect width="32" height="32" rx="6" fill="#8B5CF6"/>
  <path d="M8 16C8 12.6863 10.6863 10 14 10C17.3137 10 20 12.6863 20 16C20 19.3137 17.3137 22 14 22C10.6863 22 8 19.3137 8 16Z" fill="#FEF3C7"/>
  <path d="M20 16C20 14.8954 20.8954 14 22 14C23.1046 14 24 14.8954 24 16C24 17.1046 23.1046 18 22 18C20.8954 18 20 17.1046 20 16Z" fill="#FEF3C7"/>
  <path d="M12 14C12.5523 14 13 13.5523 13 13C13 12.4477 12.5523 12 12 12C11.4477 12 11 12.4477 11 13C11 13.5523 11.4477 14 12 14Z" fill="#1F2937"/>
  <path d="M16 14C16.5523 14 17 13.5523 17 13C17 12.4477 16.5523 12 16 12C15.4477 12 15 12.4477 15 13C15 13.5523 15.4477 14 16 14Z" fill="#1F2937"/>
  <path d="M12 18C12 17.4477 12.4477 17 13 17H15C15.5523 17 16 17.4477 16 18C16 18.5523 15.5523 19 15 19H13C12.4477 19 12 18.5523 12 18Z" fill="#1F2937"/>
  <path d="M22 12L24 10M24 10L26 12M24 10V6" stroke="#FEF3C7" stroke-width="1.5" stroke-linecap="round" stroke-linejoin="round"/>
  <path d="M6 20L8 22M8 22L10 20M8 22V26" stroke="#FEF3C7" stroke-width="1.5" stroke-linecap="round" stroke-linejoin="round"/>
</svg>